<svg width="19" height="20" viewBox="0 0 19 20" fill="none" xmlns="http://www.w3.org/2000/svg">
<path fill-rule="evenodd" clip-rule="evenodd" d="M4.24616 4.46967C4.52441 4.17678 4.97554 4.17678 5.25379 4.46967L9.49998 8.93934L13.7462 4.46967C14.0244 4.17678 14.4755 4.17678 14.7538 4.46967C15.032 4.76256 15.032 5.23744 14.7538 5.53033L10.5076 10L14.7538 14.4697C15.032 14.7626 15.032 15.2374 14.7538 15.5303C14.4755 15.8232 14.0244 15.8232 13.7462 15.5303L9.49998 11.0607L5.25379 15.5303C4.97554 15.8232 4.52441 15.8232 4.24616 15.5303C3.96791 15.2374 3.96791 14.7626 4.24616 14.4697L8.49235 10L4.24616 5.53033C3.96791 5.23744 3.96791 4.76256 4.24616 4.46967Z" fill="#ffffff"/>
</svg>
